<?xml version="1.0" encoding="iso-8859-1"?>
<!-- Uploaded to: SVG Repo, www.svgrepo.com, Generator: SVG Repo Mixer Tools -->
<!DOCTYPE svg PUBLIC "-//W3C//DTD SVG 1.1//EN" "http://www.w3.org/Graphics/SVG/1.1/DTD/svg11.dtd">
<svg fill="#000000" version="1.1" id="Capa_1" xmlns="http://www.w3.org/2000/svg" xmlns:xlink="http://www.w3.org/1999/xlink" 
	 width="800px" height="800px" viewBox="0 0 72.771 72.771"
	 xml:space="preserve">
<g>
	<path d="M57.501,9.932H26.953L12.356,35.216H3.373l13.585-23.532l-2.02-1.168L0,36.384l14.938,25.871l2.02-1.167L3.373,37.552
		h8.984l14.597,25.287h30.548l15.27-26.455L57.501,9.932z M44.198,37.552h25.203l-12.65,21.912L44.198,37.552z M54.654,60.504
		h-24.94L42.182,38.73L54.654,60.504z M44.198,35.216l12.55-21.911l12.653,21.911H44.198z M42.182,34.035L29.714,12.268h24.935
		L42.182,34.035z M15.051,35.216L27.658,13.38l13.178,23.004L27.658,59.388L15.051,37.552h15.622v-2.336H15.051z"/>
</g>
</svg>