<svg width="800" height="800" version="1.1" viewBox="0 0 80 80" xmlns="http://www.w3.org/2000/svg">
    <path d="m17 12-16 28 16 28 45-0.01 16-28-16-28z" fill="#fff" stroke="#fff" stroke-linecap="round" stroke-linejoin="round" stroke-width="10"/>
    <g id="hex" transform="matrix(-1 0 0 1 73 0)" fill="none" stroke="#000">
        <path id="hexagon" d="m15 26 8.1-14h32l16 28-16 28h-32l-8.1-14" stroke-linecap="round" stroke-linejoin="round" stroke-width="2.5" style="paint-order:stroke markers fill"/>
        <g>
            <g stroke-linejoin="round" stroke-width="2">
                <path d="m39 40s-1.3-5.4-2.5-7.9c-0.72-1.5-2-2.7-2.8-4.3-0.92-1.9-1-4.1-2.1-5.8-1.3-2.1-3.3-3.6-5-5.3-1.4-1.4-4.3-4.3-4.3-4.3"/>
                <path d="m39 40s4.7-4.1 6.1-6.7c0.97-1.8 0.66-4 1.6-5.8 0.73-1.4 2.4-2.1 3-3.5 0.77-1.7 0.1-3.8 0.8-5.5 0.98-2.4 4.6-6.2 4.6-6.2"/>
                <path d="m39 40s4.7 2 7.1 2c1.9-0 3.6-1.4 5.5-1.6 3.6-0.38 8.1 3.1 11 0.7 0.58-0.51-0.45-1.8 0.16-2.3 2.4-1.8 8.9 1.7 8.9 1.7"/>
                <path d="m39 40s1.5 4.8 2.6 7c0.82 1.7 1.8 3.3 2.9 4.8 1.3 1.8 3.2 3.1 4.4 4.9 1.3 2.1 1.6 4.8 2.9 6.8 1.1 1.6 4 4.1 4 4.1"/>
                <path d="m23 68s2.7-4.1 4.2-6.1c1.3-1.7 3.2-2.9 4-4.9 0.69-1.6-0.09-3.6 0.57-5.3 1.1-2.8 4-4.5 5.5-7.1 0.83-1.4 1.9-4.6 1.9-4.6"/>
            </g>
            <g stroke-linecap="round">
                <g stroke-width="1.6">
                    <path d="m34 18c-3.6-1.4-3.3 2.4-2.5 4.1"/>
                    <path d="m46 30c-1.5-3.6-5.2-5.1-2.6-8.2" stroke-linejoin="round"/>
                    <path d="m45 52c-0.57 2.7-3.3 2.4-2.5 4.1"/>
                </g>
                <circle id="spore" cx="43" cy="58" r="1.3" stroke-linejoin="round" stroke-width="1.2" style="paint-order:stroke markers fill"/>
            </g>
        </g>
    </g>
    <g id="arrow" fill="none" stroke="#000" stroke-linecap="round" stroke-linejoin="round" stroke-width="2.5">
        <path id="base" d="m46 40h32"/>
        <path id="head" d="m63 12 16 28-16 28"/>
    </g>
</svg>
