<svg xmlns="http://www.w3.org/2000/svg" version="1.1" xmlns:xlink="http://www.w3.org/1999/xlink"
    xmlns:svgjs="http://svgjs.dev/svgjs" viewBox="0 0 800 800">
    <g stroke-width="2" stroke="#000" fill="none" stroke-linecap="round"
        transform="matrix(1,0,0,1,-5,355.96341705322266)">
        <path
            d="M10,10C19.821428571428573,11.041666666666666,35.41666666666667,18.958333333333332,57.142857142857146,15C78.86904761904762,11.041666666666668,90.47619047619048,-9.625,114.28571428571429,-9C138.0952380952381,-8.375,147.61904761904765,17.375,171.42857142857144,18C195.23809523809524,18.625,204.76190476190476,-7.041666666666667,228.57142857142858,-6C252.3809523809524,-4.958333333333333,261.9047619047619,21.333333333333332,285.7142857142857,23C309.5238095238095,24.666666666666668,319.0476190476191,1.375,342.8571428571429,2C366.6666666666667,2.625,376.1904761904762,25.166666666666668,400,26C423.8095238095238,26.833333333333332,433.33333333333337,4.541666666666666,457.14285714285717,6C480.95238095238096,7.458333333333334,490.47619047619054,32.166666666666664,514.2857142857143,33C538.0952380952382,33.833333333333336,547.6190476190477,10,571.4285714285714,10C595.2380952380952,10,604.7619047619047,33,628.5714285714286,33C652.3809523809524,33,661.9047619047619,9.166666666666666,685.7142857142858,10C709.5238095238096,10.833333333333334,719.047619047619,35.541666666666664,742.8571428571429,37C766.6666666666667,38.458333333333336,788.0952380952381,21.166666666666668,800,17"></path>
    </g>
</svg>